<svg width="40" height="43" viewBox="0 0 40 43" fill="none" xmlns="http://www.w3.org/2000/svg">
<g filter="url(#filter0_d_626_1248)">
<circle cx="19.8431" cy="19.8431" r="19.8431" fill="#FFE13A"/>
<circle cx="19.8431" cy="19.8431" r="18.3431" stroke="white" stroke-width="3"/>
</g>
<path d="M17.5963 9.5956L17.5963 9.59558C19.0211 8.16105 21.3405 8.16084 22.7648 9.59549M17.5963 9.5956L22.4101 9.94792M17.5963 9.5956L9.59069 17.657C9.59053 17.6572 9.59037 17.6573 9.5902 17.6575C8.89963 18.3494 8.51953 19.2738 8.51953 20.2553V20.3287C8.51953 21.3074 8.89747 22.2305 9.58476 22.9222C9.58478 22.9222 9.5848 22.9223 9.58483 22.9223L17.5947 30.9871C17.5948 30.9872 17.595 30.9873 17.5951 30.9875L17.5963 9.5956ZM22.7648 9.59549C22.7649 9.59555 22.7649 9.59562 22.765 9.59568L22.4101 9.94792M22.7648 9.59549C22.7647 9.59542 22.7647 9.59536 22.7646 9.5953L22.4101 9.94792M22.7648 9.59549C23.4535 10.2879 23.8344 11.2127 23.8344 12.192C23.8344 13.1712 23.4537 14.0959 22.765 14.7879M22.4101 9.94792C23.0055 10.5464 23.3344 11.3443 23.3344 12.192C23.3344 13.0397 23.0055 13.8377 22.4101 14.4356L22.765 14.7879M22.765 14.7879L22.7645 14.7884M22.765 14.7879L22.7645 14.7884M22.7645 14.7884L20.9849 16.5809H29.3286C31.3474 16.5809 32.9702 18.256 32.9705 20.2921V20.2921C32.9705 22.3296 31.3477 24.0046 29.3289 24.0046H20.9868L22.7652 25.7961L22.7655 25.7964C23.4546 26.4916 23.8347 27.4146 23.8347 28.3941C23.8347 29.3755 23.4521 30.2996 22.7624 30.9931C22.7624 30.9931 22.7623 30.9932 22.7622 30.9933L22.4077 30.6406C21.8172 31.2367 21.0244 31.5686 20.1816 31.5686L22.7645 14.7884Z" fill="white" stroke="#FFC90C"/>
<defs>
<filter id="filter0_d_626_1248" x="0" y="0" width="39.6865" height="42.6863" filterUnits="userSpaceOnUse" color-interpolation-filters="sRGB">
<feFlood flood-opacity="0" result="BackgroundImageFix"/>
<feColorMatrix in="SourceAlpha" type="matrix" values="0 0 0 0 0 0 0 0 0 0 0 0 0 0 0 0 0 0 127 0" result="hardAlpha"/>
<feOffset dy="3"/>
<feComposite in2="hardAlpha" operator="out"/>
<feColorMatrix type="matrix" values="0 0 0 0 1 0 0 0 0 0.801083 0 0 0 0 0.0958334 0 0 0 1 0"/>
<feBlend mode="normal" in2="BackgroundImageFix" result="effect1_dropShadow_626_1248"/>
<feBlend mode="normal" in="SourceGraphic" in2="effect1_dropShadow_626_1248" result="shape"/>
</filter>
</defs>
</svg>
