<svg width="41" height="43" viewBox="0 0 41 43" fill="none" xmlns="http://www.w3.org/2000/svg">
<g filter="url(#filter0_d_589_11882)">
<circle cx="20.5297" cy="19.8431" r="19.8431" fill="#92F200"/>
<circle cx="20.5297" cy="19.8431" r="18.3431" stroke="white" stroke-width="3"/>
</g>
<path d="M20.7424 10.6449C20.6716 10.6434 20.601 10.6427 20.5304 10.6427C14.7837 10.6427 10.1084 15.3166 10.1084 21.0626C10.1084 26.8091 14.7837 31.4827 20.5304 31.4827C26.2773 31.4825 30.9515 26.8088 30.9515 21.0624V20.7224V20.379L30.9192 20.3665C30.7423 19.1017 29.6549 18.1279 28.3413 18.1279C26.903 18.1279 25.7359 19.2927 25.7359 20.7317C25.7359 20.8191 25.7409 20.9058 25.7497 20.9894V21.0624C25.7497 23.9398 23.4083 26.2814 20.5309 26.2814C17.6538 26.2814 15.3119 23.9397 15.3119 21.0624C15.3119 18.1866 17.6538 15.8438 20.5309 15.8438C20.6015 15.8438 20.6722 15.8453 20.7428 15.8481V16.2506V16.2644V16.7506H20.8013C21.0194 17.6407 21.823 18.3017 22.7808 18.3017C23.4248 18.3017 23.9905 17.9998 24.3604 17.5422L27.0035 14.892C27.4088 14.5223 27.6729 13.9908 27.6729 13.3897C27.6729 12.713 27.3423 12.1177 26.8397 11.749L24.2896 9.19529C24.2432 9.14207 24.1957 9.095 24.1486 9.05271L24.1135 9.01772L23.9672 8.87221H23.9171C23.5956 8.65292 23.2066 8.51959 22.7806 8.51959C21.7855 8.51959 20.9694 9.23189 20.7879 10.1673L20.7424 10.202V10.4496V10.6449Z" fill="white" stroke="#39BD01"/>
<defs>
<filter id="filter0_d_589_11882" x="0.686523" y="0" width="39.6865" height="42.6863" filterUnits="userSpaceOnUse" color-interpolation-filters="sRGB">
<feFlood flood-opacity="0" result="BackgroundImageFix"/>
<feColorMatrix in="SourceAlpha" type="matrix" values="0 0 0 0 0 0 0 0 0 0 0 0 0 0 0 0 0 0 127 0" result="hardAlpha"/>
<feOffset dy="3"/>
<feComposite in2="hardAlpha" operator="out"/>
<feColorMatrix type="matrix" values="0 0 0 0 0.225553 0 0 0 0 0.741667 0 0 0 0 0.00309026 0 0 0 1 0"/>
<feBlend mode="normal" in2="BackgroundImageFix" result="effect1_dropShadow_589_11882"/>
<feBlend mode="normal" in="SourceGraphic" in2="effect1_dropShadow_589_11882" result="shape"/>
</filter>
</defs>
</svg>
