<svg width="12" height="16" viewBox="0 0 12 16" fill="none" xmlns="http://www.w3.org/2000/svg">
<path d="M10.5 5H9.75V4.25C9.75 2.18225 8.06775 0.5 6 0.5C3.93225 0.5 2.25 2.18225 2.25 4.25V5H1.5C1.10218 5 0.720644 5.15804 0.43934 5.43934C0.158035 5.72064 0 6.10218 0 6.5V14C0 14.3978 0.158035 14.7794 0.43934 15.0607C0.720644 15.342 1.10218 15.5 1.5 15.5H10.5C10.8978 15.5 11.2794 15.342 11.5607 15.0607C11.842 14.7794 12 14.3978 12 14V6.5C12 6.10218 11.842 5.72064 11.5607 5.43934C11.2794 5.15804 10.8978 5 10.5 5ZM3.75 4.25C3.75 3.0095 4.7595 2 6 2C7.2405 2 8.25 3.0095 8.25 4.25V5H3.75V4.25ZM6.75 10.7922V12.5H5.25V10.7922C4.80375 10.5328 4.5 10.0542 4.5 9.5C4.5 9.10218 4.65804 8.72064 4.93934 8.43934C5.22064 8.15804 5.60218 8 6 8C6.39782 8 6.77936 8.15804 7.06066 8.43934C7.34196 8.72064 7.5 9.10218 7.5 9.5C7.5 10.0535 7.19625 10.532 6.75 10.7922Z" fill="#FFE13A"/>
</svg>
